<?xml version="1.0" standalone="no"?>
<!DOCTYPE svg PUBLIC "-//W3C//DTD SVG 1.1//EN" "http://www.w3.org/Graphics/SVG/1.1/DTD/svg11.dtd" >
<svg xmlns="http://www.w3.org/2000/svg" xmlns:svg="http://www.w3.org/2000/svg" xmlns:xlink="http://www.w3.org/1999/xlink" viewBox="0 0 1024 1024"><path d="M328.28 881.72Q347.67 861.82 386.4 834.37Q417.66 786.41 441.54 729.52Q489.72 654.18 522.24 556.68Q522.15 514.64 502.69 480.28Q537.27 491.45 518.02 506.12Q527.23 468.75 479.03 468.15Q480.31 477.09 447.89 489.1Q414.38 490.8 410.74 498.37Q393.81 492.64 382.57 461.09Q366.01 470.43 372.05 436.45Q382.57 458.3 388.1 441.1Q373.62 440.79 365.13 402.77L389.01 391.21H653.34Q710.42 416.22 745.64 411.88Q841.41 383.71 878.33 411.55Q910 394.94 922.38 415.36Q925.77 418.56 916.13 397.82Q931.34 420.41 912.75 446.01Q935.76 442.83 928.51 450.86Q925.08 463.49 902.97 457.99Q930.22 457.6 873.76 455.14Q891.49 457.09 832.06 487.68L751.42 475.76L752.81 582.14Q763.24 691.11 754.02 734.03Q759.6 784.91 775.5 787.94Q767.29 810.41 804.6 814.29Q847.63 843.24 857.12 849.23Q863.35 819.92 858.79 849.06Q856.15 825.09 858.32 824.93Q844.97 803.82 854.1 801.84Q863.51 813.11 864.49 825.15Q858.62 784.91 858.07 747.9Q885.57 746.6 906.77 749.81Q913.65 745.39 896.38 730.46Q923.53 743.99 932.95 771.47Q941.13 781.34 932.25 811.04Q921.09 856.52 925.8 854.41Q945.64 892.66 934.33 905.21Q929.65 919.78 876.31 920.04Q879.37 909.19 850.94 908.13Q831.2 915.15 831.28 900.06Q802.27 897.35 788.32 905.87Q774.8 904.62 758.02 872.09Q733.23 873.03 728.16 864.2Q713.33 835.4 695.74 810.59Q665.85 788.42 658.79 765.15Q680.87 699.11 671.32 640.12L683.26 470.94L653.58 460.52Q656.79 457.78 619.52 484.51Q639.54 487.86 636.35 486.65Q622.13 464.3 600.39 495.95Q603.25 482.87 582.43 500.63Q593.38 537.33 593.69 582.82Q566.59 659.79 539.76 732.82Q529.67 761.38 484.8 815.79Q434.39 881.37 411.77 899.64Q389.57 918.28 379.98 903Q342.81 919.12 351.71 901.84Q355.39 902.82 338.5 881.96Q344 886.54 328.47 868.17ZM415.8 174.6Q436.4 149.58 410.51 155.09Q445.43 167.14 433.51 151.81Q434.73 144.68 443.37 148.37Q469.33 148.41 477.77 153.1Q468.33 157.91 559.09 168.02Q610.66 168.4 685.55 159.19Q769.38 169.01 814.44 156.33Q867.73 156.93 842.03 164.9Q858.47 170.94 884.62 190.79Q864.09 183.88 862.07 191.3Q847.51 213.44 840.59 196.86Q869.28 208.66 810.77 233.99Q794.43 214.79 627.24 215.77Q489.19 215.95 462.59 239.87Q410.44 231.47 423.26 226.2Q392.56 199.66 414.36 212.75Q400.55 175.15 418.42 177.57Q399.68 183.29 415.15 173.13ZM100.87 128.17Q110.79 117.13 99.72 99.58Q126.39 91.67 138.88 127.62Q145.59 94.23 119.46 121.05Q126.6 125.4 133.49 112.7Q159.35 105.89 169.82 119.61Q189.66 108.53 214.01 140.37Q287.37 143.72 310.18 171.93Q331.57 181.51 325.84 185.33Q323.95 198.19 337.94 202.81Q315.59 185.8 339.18 186.93Q328.99 210.48 317.04 208.19Q308.6 233.79 287.14 232.65Q277.45 221.62 242.88 230.15Q179.81 205.14 158.34 185.16Q125.47 180.67 131.5 190.88Q137.24 169.13 98.35 175.03Q105.02 169.54 87.63 147.89Q105.09 165.47 83.63 153.67Q94.25 146.39 105.81 114.78ZM103.45 857.92Q85.25 871.05 165.16 813.07Q228.03 753.95 254.67 731.18Q258.19 727.36 257.86 704.36Q250.6 709.98 247.07 722.54Q251.79 723.99 257.27 731.84Q293.26 726.49 297.37 758.31Q307.34 756.71 271.68 760.83Q306.02 757.95 289.19 782.16Q257.86 838.18 198.95 874.88Q154.25 902.5 120.3 896.28Q102.18 916.97 94.43 911.25Q70.81 872.72 82.52 863.9ZM67.24 407.34Q77.3 377.75 115.16 385.59Q112.93 361.73 116.74 383.76Q140.66 368.19 152.32 377.15Q193.35 373.18 252.52 396.14Q283.42 386.1 289.27 386.03Q318.53 401.31 305.87 422.08Q300.84 417.09 319.02 446.83Q291.96 462.83 282.91 456.17Q258.17 450.72 246.09 464.59Q263.16 471.96 217.05 463.58Q208.35 434.83 205.73 452.2Q154.86 452.23 156.25 451.31Q134.93 448.2 99.28 439.4Q106.05 445.25 84.47 425.43Q96.45 400.58 81.83 388.06Q66.23 387.47 101.68 392.32Z" fill="black"></path></svg>