<?xml version="1.0" standalone="no"?>
<!DOCTYPE svg PUBLIC "-//W3C//DTD SVG 1.1//EN" "http://www.w3.org/Graphics/SVG/1.1/DTD/svg11.dtd" >
<svg xmlns="http://www.w3.org/2000/svg" xmlns:svg="http://www.w3.org/2000/svg" xmlns:xlink="http://www.w3.org/1999/xlink" viewBox="0 0 1024 1024"><path d="M337.5 879.5Q340.5 862.5 367.5 837.5Q416.5 790.5 451.5 724.0Q486.5 657.5 508.5 571.5Q522.5 518.5 522.5 499.5Q522.5 493.5 519.5 487.5Q516.5 481.5 484.5 481.5Q476.5 481.5 466.5 482.5Q432.5 482.5 417.5 480.0Q402.5 477.5 393.5 468.5Q375.5 455.5 374.5 448.0Q373.5 440.5 373.5 438.5Q373.5 426.5 384.5 416.5L398.5 401.5H655.5Q701.5 401.5 739.5 401.5Q832.5 401.5 875.5 403.5Q918.5 405.5 918.5 410.5Q918.5 410.5 918.5 410.5Q925.5 420.5 925.5 433.5Q925.5 434.5 925.0 441.5Q924.5 448.5 915.5 459.5Q911.5 468.5 893.5 471.0Q875.5 473.5 821.5 473.5L736.5 477.5L740.5 587.5Q745.5 700.5 752.0 746.5Q758.5 792.5 771.5 803.5Q785.5 817.5 813.5 827.0Q841.5 836.5 853.5 836.5Q857.5 836.5 859.5 835.5Q861.5 833.5 862.0 827.5Q862.5 821.5 862.5 818.5Q862.5 812.5 861.5 805.5Q861.5 778.5 868.5 760.5Q875.5 742.5 889.5 738.5Q896.5 736.5 902.5 736.5Q919.5 736.5 929.0 754.5Q938.5 772.5 938.5 828.5Q939.5 840.5 939.5 849.5Q939.5 885.5 928.0 896.0Q916.5 906.5 878.5 906.5Q867.5 906.5 853.5 905.5Q837.5 906.5 825.5 906.5Q803.5 906.5 789.0 903.5Q774.5 900.5 754.5 889.5Q724.5 873.5 709.0 857.5Q693.5 841.5 686.5 815.5Q682.5 803.5 678.0 753.0Q673.5 702.5 670.5 634.5L663.5 479.5L643.5 477.5Q639.5 476.5 636.5 476.5Q631.5 476.5 625.0 478.0Q618.5 479.5 614.5 482.5Q609.5 488.5 600.5 514.5Q591.5 540.5 582.5 580.5Q562.5 668.5 537.0 722.5Q511.5 776.5 465.5 835.5Q423.5 889.5 404.5 902.0Q385.5 914.5 373.5 914.5Q361.5 914.5 351.5 907.5Q336.5 897.5 336.5 885.5Q336.5 882.5 337.5 879.5ZM409.5 168.5Q416.5 155.5 423.5 149.5Q427.5 148.5 436.0 148.0Q444.5 147.5 448.5 147.5Q457.5 147.5 468.5 148.5Q486.5 149.5 545.0 150.5Q603.5 151.5 677.5 151.5Q783.5 151.5 818.5 153.5Q853.5 155.5 857.5 162.5Q867.5 172.5 867.5 183.5Q867.5 184.5 867.0 191.5Q866.5 198.5 853.5 209.5Q852.5 218.5 815.5 221.0Q778.5 223.5 634.5 223.5Q490.5 223.5 453.5 221.0Q416.5 218.5 414.5 209.5Q409.5 203.5 405.0 198.5Q400.5 193.5 400.5 189.5Q402.5 182.5 409.5 168.5ZM93.5 134.5Q97.5 119.5 110.5 112.5Q117.5 110.5 122.0 110.0Q126.5 109.5 128.5 109.5Q132.5 109.5 135.5 110.5Q139.5 112.5 164.5 117.5Q189.5 122.5 222.5 131.5Q290.5 148.5 310.5 159.5Q330.5 170.5 330.5 191.5Q330.5 192.5 330.5 193.5Q330.5 194.5 330.5 195.5Q330.5 221.5 318.5 224.0Q306.5 226.5 300.5 226.5Q276.5 226.5 223.5 211.5Q193.5 202.5 165.5 195.0Q137.5 187.5 126.5 184.5Q117.5 180.5 108.5 175.0Q99.5 169.5 96.5 164.5Q91.5 155.5 91.5 146.5Q91.5 140.5 93.5 134.5ZM90.5 873.5Q96.5 853.5 154.0 799.5Q211.5 745.5 245.5 727.5Q252.5 723.5 258.5 723.5Q259.5 723.5 262.5 724.0Q265.5 724.5 276.5 733.5Q289.5 741.5 289.5 754.5Q289.5 755.5 289.0 763.0Q288.5 770.5 274.5 792.5Q250.5 821.5 196.5 863.5Q142.5 905.5 124.5 909.5Q114.5 909.5 102.5 897.0Q90.5 884.5 90.5 873.5ZM84.5 395.5Q85.5 383.5 97.5 376.5Q108.5 369.5 134.5 369.5Q139.5 369.5 161.0 370.5Q182.5 371.5 243.5 383.5Q283.5 392.5 293.5 401.0Q303.5 409.5 303.5 421.5Q303.5 426.5 301.5 432.5Q297.5 450.5 284.0 455.5Q270.5 460.5 257.5 460.5Q245.5 460.5 231.5 457.5Q216.5 454.5 193.0 450.5Q169.5 446.5 150.5 443.5Q123.5 439.5 110.5 434.0Q97.5 428.5 92.5 421.5Q84.5 408.5 84.5 397.5Q84.5 396.5 84.5 395.5Z" fill="black"></path></svg>