<?xml version="1.0" standalone="no"?>
<!DOCTYPE svg PUBLIC "-//W3C//DTD SVG 1.1//EN" "http://www.w3.org/Graphics/SVG/1.1/DTD/svg11.dtd" >
<svg xmlns="http://www.w3.org/2000/svg" xmlns:svg="http://www.w3.org/2000/svg" xmlns:xlink="http://www.w3.org/1999/xlink" viewBox="0 0 1000 1000"><path d="M867.0 367.0Q822.0 411.0 776.0 477.0Q753.0 477.0 750.0 471.0Q752.0 432.0 774.0 384.0H745.0L217.0 427.0L188.0 501.0L178.0 518.0Q171.0 521.0 156.0 518.0Q155.0 513.0 140.0 479.0Q133.0 464.0 133.0 453.0Q133.0 437.0 145.0 425.0Q177.0 392.0 195.0 334.0Q197.0 329.0 201.0 316.0L210.0 310.0H211.0Q225.0 330.0 224.0 381.0L329.0 375.0H330.0L332.0 234.0Q330.0 159.0 307.0 115.0Q306.0 106.0 326.0 107.0Q337.0 113.0 359.0 139.0L374.0 153.0L607.0 129.0Q614.0 124.0 642.0 101.0Q667.0 112.0 690.0 138.0Q701.0 150.0 701.0 157.0Q701.0 166.0 685.0 175.0Q670.0 183.0 668.0 193.0Q662.0 226.0 663.0 328.0Q664.0 337.0 664.0 344.0Q687.0 344.0 776.0 337.0Q781.0 334.0 795.0 317.0Q806.0 305.0 818.0 305.0Q821.0 309.0 847.0 331.0Q867.0 348.0 867.0 367.0ZM613.0 345.0 611.0 274.0 520.0 294.0V353.0ZM613.0 238.0V176.0H599.0L375.0 199.0V367.0L471.0 360.0L470.0 277.0Q469.0 271.0 468.0 266.0L454.0 231.0Q453.0 223.0 458.0 215.0Q477.0 215.0 501.0 243.0Q510.0 254.0 514.0 258.0ZM696.0 476.0Q669.0 488.0 666.0 516.0L664.0 841.0Q664.0 872.0 646.0 892.0Q642.0 896.0 637.0 899.0L624.0 896.0L506.0 773.0Q506.0 762.0 520.0 764.0L527.0 765.0L602.0 809.0Q614.0 809.0 620.0 796.0V488.0Q593.0 485.0 462.0 506.0Q396.0 517.0 377.0 515.0L375.0 567.0Q400.0 570.0 529.0 554.0Q544.0 552.0 553.0 551.0Q571.0 549.0 583.0 562.0L591.0 575.0Q592.0 578.0 592.0 582.0L590.0 586.0L578.0 593.0Q456.0 604.0 377.0 616.0L375.0 667.0Q408.0 671.0 496.0 660.0Q532.0 655.0 555.0 655.0Q582.0 670.0 586.0 678.0Q588.0 682.0 588.0 688.0L577.0 697.0L378.0 716.0L375.0 719.0L374.0 883.0Q374.0 895.0 361.0 896.0Q357.0 897.0 354.0 896.0L318.0 848.0Q299.0 816.0 319.0 796.0Q335.0 738.0 335.0 639.0Q335.0 533.0 333.0 513.0Q331.0 484.0 311.0 444.0Q310.0 410.0 369.0 463.0Q377.0 470.0 378.0 471.0L608.0 444.0Q611.0 442.0 627.0 424.0Q637.0 412.0 649.0 412.0L696.0 452.0Q702.0 457.0 700.0 467.0Z" fill="black"></path></svg>