<?xml version="1.0" standalone="no"?>
<!DOCTYPE svg PUBLIC "-//W3C//DTD SVG 1.1//EN" "http://www.w3.org/Graphics/SVG/1.1/DTD/svg11.dtd" >
<svg xmlns="http://www.w3.org/2000/svg" xmlns:svg="http://www.w3.org/2000/svg" xmlns:xlink="http://www.w3.org/1999/xlink" viewBox="0 0 1000 1000"><path d="M863.0 609.5Q863.0 616.5 855.0 620.5Q473.0 646.5 464.0 647.5L190.0 671.5H188.0Q172.0 673.5 151.0 652.5Q139.0 640.5 137.0 631.5L143.0 626.5Q195.0 626.5 432.0 613.5Q454.0 612.5 473.0 611.5L474.0 537.5H443.0Q431.0 537.5 332.0 546.5Q305.0 549.5 284.0 549.5Q256.0 549.5 238.0 521.5Q237.0 519.5 235.0 516.5Q235.0 507.5 256.0 504.5L326.0 503.5Q375.0 502.5 473.0 496.5L474.0 411.5Q434.0 413.5 308.0 427.5Q303.0 456.5 301.0 460.5L299.0 464.5Q283.0 461.5 257.0 423.5Q243.0 402.5 243.0 392.5Q264.0 360.5 263.0 237.5Q263.0 205.5 259.0 179.5L252.0 149.5Q252.0 140.5 269.0 140.5L302.0 172.5Q497.0 160.5 691.0 140.5L721.0 106.5H722.0Q740.0 107.5 769.0 129.5Q780.0 137.5 783.0 147.5Q783.0 153.5 767.0 173.5Q761.0 180.5 760.0 184.5Q744.0 219.5 737.0 336.5L735.0 355.5L752.0 373.5Q756.0 378.5 756.0 384.5L744.0 390.5Q592.0 398.5 518.0 406.5L517.0 490.5Q585.0 490.5 645.0 481.5L705.0 471.5H707.0Q726.0 471.5 747.0 492.5L755.0 505.5L756.0 507.5Q755.0 514.5 739.0 518.5L518.0 533.5L517.0 604.5Q590.0 604.5 717.0 587.5Q778.0 578.5 797.0 576.5Q822.0 574.5 844.0 590.5Q856.0 598.5 863.0 609.5ZM700.0 186.5Q545.0 198.5 518.0 201.5V362.5L547.0 359.5L593.0 205.5Q601.0 193.5 628.0 227.5L643.0 252.5L646.0 263.5Q605.0 322.5 601.0 328.5L588.0 357.5L682.0 350.5ZM473.0 367.5V205.5L308.0 214.5V384.5ZM396.0 361.5Q389.0 355.5 345.0 247.5Q345.0 238.5 348.0 236.5Q366.0 236.5 399.0 267.5Q434.0 299.5 427.0 319.5Q413.0 357.5 396.0 361.5ZM795.0 877.5Q783.0 877.5 775.0 864.5L751.0 805.5V804.5Q732.0 762.5 691.0 680.5L692.0 668.5Q709.0 668.5 736.0 697.5L825.0 787.5Q842.0 803.5 816.0 860.5L813.0 864.5Q810.0 871.5 795.0 877.5ZM588.0 873.5 582.0 864.5 545.0 700.5Q548.0 686.5 549.0 685.5Q564.0 688.5 579.0 712.5L637.0 796.5Q647.0 812.5 616.0 856.5Q612.0 862.5 610.0 864.5Q605.0 873.5 588.0 873.5ZM459.0 793.5Q459.0 820.5 431.0 854.5Q423.0 863.5 422.0 864.5L408.0 868.5L403.0 866.5L400.0 861.5L387.0 696.5Q388.0 685.5 406.0 693.5ZM196.0 893.5Q183.0 880.5 181.0 845.5Q179.0 830.5 206.0 798.5Q211.0 791.5 214.0 787.5Q241.0 744.5 258.0 703.5L267.0 694.5L273.0 702.5Q275.0 720.5 275.0 730.5Q275.0 772.5 248.0 834.5Q223.0 893.5 196.0 893.5Z" fill="black"></path></svg>