<?xml version="1.0" standalone="no"?>
<!DOCTYPE svg PUBLIC "-//W3C//DTD SVG 1.1//EN" "http://www.w3.org/Graphics/SVG/1.1/DTD/svg11.dtd" >
<svg xmlns="http://www.w3.org/2000/svg" xmlns:svg="http://www.w3.org/2000/svg" xmlns:xlink="http://www.w3.org/1999/xlink" viewBox="0 0 1024 1024"><path d="M433.5 248.5 614.5 264.5Q614.5 274.5 607.5 281.5Q600.5 288.5 582.5 291.5V465.5H785.5L858.5 371.5Q858.5 371.5 871.5 381.5Q884.5 391.5 905.0 408.0Q925.5 424.5 948.0 443.0Q970.5 461.5 988.5 477.5Q984.5 493.5 959.5 493.5H611.5Q653.5 566.5 716.0 625.5Q778.5 684.5 851.0 728.0Q923.5 771.5 996.5 798.5L993.5 809.5Q953.5 817.5 922.5 850.0Q891.5 882.5 878.5 933.5Q771.5 864.5 702.5 754.0Q633.5 643.5 592.5 493.5H582.5V954.5Q582.5 961.5 563.5 972.0Q544.5 982.5 517.0 990.5Q489.5 998.5 461.5 998.5H433.5V643.5Q291.5 830.5 30.5 935.5L22.5 925.5Q96.5 872.5 158.5 802.0Q220.5 731.5 266.5 652.0Q312.5 572.5 340.5 493.5H40.5L32.5 465.5H433.5ZM166.5 123.5H178.5Q194.5 160.5 200.5 193.5H430.5V25.5L621.5 39.5Q620.5 50.5 613.0 58.0Q605.5 65.5 584.5 68.5V193.5H804.5L877.5 122.5L1001.5 238.5Q990.5 250.5 961.5 252.5Q938.5 271.5 907.0 292.0Q875.5 312.5 841.5 331.5Q807.5 350.5 777.5 363.5L770.5 357.5Q782.5 330.5 793.0 292.5Q803.5 254.5 810.5 222.5H205.5Q211.5 280.5 194.5 321.0Q177.5 361.5 148.5 380.5Q129.5 392.5 106.0 392.5Q82.5 392.5 63.0 380.0Q43.5 367.5 35.5 343.5Q24.5 310.5 40.5 285.0Q56.5 259.5 84.5 246.5Q102.5 236.5 121.5 218.0Q140.5 199.5 153.5 175.0Q166.5 150.5 166.5 123.5Z" fill="black"></path></svg>